<svg xmlns="http://www.w3.org/2000/svg" viewBox="0 0 840 480" width="840" height="480">
<style>
  @import url('https://fonts.googleapis.com/css2?family=Source+Sans+3:wght@400;600&amp;display=swap');
  text { font-family: 'Source Sans 3', 'Source Sans Pro', system-ui, sans-serif; }
</style>
<defs>
  <marker id="ah" viewBox="0 0 10 8" refX="9" refY="4" markerWidth="9" markerHeight="7" orient="auto">
    <path d="M0 0.5 L9 4 L0 7.5 Z" fill="#0D32B2"/>
  </marker>
</defs>

<rect width="840" height="480" fill="#FFFFFF" rx="12"/>

<!-- Title -->
<text x="420" y="34" text-anchor="middle" font-size="20" font-weight="600" fill="#0A0F25">Beehive Monitor — How it works</text>
<text x="420" y="54" text-anchor="middle" font-size="13" fill="#6B8A96">Computer vision + weather data for backyard beekeeping</text>

<!-- ═══ FLOW ROW ═══ -->
<rect x="28" y="76" width="170" height="108" rx="10" fill="#fffde7" stroke="#b28704" stroke-width="1.5"/>
<text x="113" y="112" text-anchor="middle" font-size="26">📷</text>
<text x="113" y="138" text-anchor="middle" font-size="15" font-weight="600" fill="#0A0F25">Capture session</text>
<text x="113" y="156" text-anchor="middle" font-size="11" fill="#b28704">Calendar scheduling</text>
<text x="113" y="170" text-anchor="middle" font-size="11" fill="#b28704">photo upload via UI</text>

<line x1="198" y1="130" x2="230" y2="130" stroke="#0D32B2" stroke-width="2" marker-end="url(#ah)"/>

<rect x="234" y="76" width="170" height="108" rx="10" fill="#e8f5e8" stroke="#388e3c" stroke-width="1.5"/>
<text x="319" y="112" text-anchor="middle" font-size="26">🔬</text>
<text x="319" y="138" text-anchor="middle" font-size="15" font-weight="600" fill="#0A0F25">Analyze</text>
<text x="319" y="156" text-anchor="middle" font-size="11" fill="#388e3c">Cloud Vision detects</text>
<text x="319" y="170" text-anchor="middle" font-size="11" fill="#388e3c">hive conditions</text>

<line x1="404" y1="130" x2="436" y2="130" stroke="#0D32B2" stroke-width="2" marker-end="url(#ah)"/>

<rect x="440" y="76" width="170" height="108" rx="10" fill="#e3f2fd" stroke="#1976d2" stroke-width="1.5"/>
<text x="525" y="112" text-anchor="middle" font-size="26">🍯</text>
<text x="525" y="138" text-anchor="middle" font-size="15" font-weight="600" fill="#0A0F25">Dashboard</text>
<text x="525" y="156" text-anchor="middle" font-size="11" fill="#1976d2">Streamlit UI with</text>
<text x="525" y="170" text-anchor="middle" font-size="11" fill="#1976d2">session tracking</text>

<line x1="610" y1="130" x2="642" y2="130" stroke="#0D32B2" stroke-width="2" marker-end="url(#ah)"/>

<rect x="646" y="76" width="166" height="108" rx="10" fill="#f3e5f5" stroke="#7b1fa2" stroke-width="1.5"/>
<text x="729" y="112" text-anchor="middle" font-size="26">📦</text>
<text x="729" y="138" text-anchor="middle" font-size="15" font-weight="600" fill="#0A0F25">Export + deploy</text>
<text x="729" y="156" text-anchor="middle" font-size="11" fill="#7b1fa2">Data export &amp;</text>
<text x="729" y="170" text-anchor="middle" font-size="11" fill="#7b1fa2">cloud deployment</text>

<!-- ═══ FEATURE STRIP ═══ -->
<text x="420" y="214" text-anchor="middle" font-size="13" font-weight="600" fill="#0A0F25">Under the hood</text>

<rect x="28" y="228" width="192" height="82" rx="8" fill="#FFFFFF" stroke="#b28704" stroke-width="1"/>
<text x="124" y="252" text-anchor="middle" font-size="13" font-weight="600" fill="#0A0F25">📅 Session management</text>
<text x="124" y="270" text-anchor="middle" font-size="11" fill="#b28704">Calendar-based scheduling</text>
<text x="124" y="284" text-anchor="middle" font-size="11" fill="#b28704">Multi-photo sessions</text>
<text x="124" y="300" text-anchor="middle" font-size="10" fill="#6B8A96">Date-stamped observations</text>

<rect x="232" y="228" width="192" height="82" rx="8" fill="#FFFFFF" stroke="#388e3c" stroke-width="1"/>
<text x="328" y="252" text-anchor="middle" font-size="13" font-weight="600" fill="#0A0F25">🧠 Google Cloud Vision</text>
<text x="328" y="270" text-anchor="middle" font-size="11" fill="#388e3c">Image label detection</text>
<text x="328" y="284" text-anchor="middle" font-size="11" fill="#388e3c">Object + activity recognition</text>
<text x="328" y="300" text-anchor="middle" font-size="10" fill="#6B8A96">Automated visual analysis</text>

<rect x="436" y="228" width="192" height="82" rx="8" fill="#FFFFFF" stroke="#1976d2" stroke-width="1"/>
<text x="532" y="252" text-anchor="middle" font-size="13" font-weight="600" fill="#0A0F25">🌤️ Weather integration</text>
<text x="532" y="270" text-anchor="middle" font-size="11" fill="#1976d2">Open-Meteo API</text>
<text x="532" y="284" text-anchor="middle" font-size="11" fill="#1976d2">Temp, humidity, wind</text>
<text x="532" y="300" text-anchor="middle" font-size="10" fill="#6B8A96">Correlate weather → hive behavior</text>

<rect x="640" y="228" width="172" height="82" rx="8" fill="#FFFFFF" stroke="#7b1fa2" stroke-width="1"/>
<text x="726" y="252" text-anchor="middle" font-size="13" font-weight="600" fill="#0A0F25">🐳 Containerized deploy</text>
<text x="726" y="270" text-anchor="middle" font-size="11" fill="#7b1fa2">Docker image</text>
<text x="726" y="284" text-anchor="middle" font-size="11" fill="#7b1fa2">Google Cloud Run</text>
<text x="726" y="300" text-anchor="middle" font-size="10" fill="#6B8A96">JSON / CSV data export</text>

<!-- ═══ TECH PILLS ═══ -->
<rect x="168" y="336" width="80" height="22" rx="11" fill="#e3f2fd" stroke="#1976d2" stroke-width="0.75"/>
<text x="208" y="351" text-anchor="middle" font-size="10" font-weight="600" fill="#1976d2">Streamlit</text>
<rect x="258" y="336" width="68" height="22" rx="11" fill="#e8f5e8" stroke="#388e3c" stroke-width="0.75"/>
<text x="292" y="351" text-anchor="middle" font-size="10" font-weight="600" fill="#388e3c">Python</text>
<rect x="336" y="336" width="106" height="22" rx="11" fill="#e8f5e8" stroke="#388e3c" stroke-width="0.75"/>
<text x="389" y="351" text-anchor="middle" font-size="10" font-weight="600" fill="#388e3c">Cloud Vision</text>
<rect x="452" y="336" width="96" height="22" rx="11" fill="#fffde7" stroke="#b28704" stroke-width="0.75"/>
<text x="500" y="351" text-anchor="middle" font-size="10" font-weight="600" fill="#b28704">Open-Meteo</text>
<rect x="558" y="336" width="68" height="22" rx="11" fill="#f3e5f5" stroke="#7b1fa2" stroke-width="0.75"/>
<text x="592" y="351" text-anchor="middle" font-size="10" font-weight="600" fill="#7b1fa2">Docker</text>

<!-- Footer -->
<text x="420" y="400" text-anchor="middle" font-size="12" fill="#999">barbhs.com · Barbara Hidalgo-Sotelo</text>
<text x="420" y="418" text-anchor="middle" font-size="11" fill="#bbb">Making meaning from messy data</text>
</svg>
