<svg xmlns="http://www.w3.org/2000/svg" viewBox="0 0 840 480" width="840" height="480">
<style>
  @import url('https://fonts.googleapis.com/css2?family=Source+Sans+3:wght@400;600&amp;display=swap');
  text { font-family: 'Source Sans 3', 'Source Sans Pro', system-ui, sans-serif; }
</style>
<defs>
  <marker id="ah" viewBox="0 0 10 8" refX="9" refY="4" markerWidth="9" markerHeight="7" orient="auto">
    <path d="M0 0.5 L9 4 L0 7.5 Z" fill="#0D32B2"/>
  </marker>
</defs>

<rect width="840" height="480" fill="#FFFFFF" rx="12"/>

<!-- Title -->
<text x="420" y="34" text-anchor="middle" font-size="20" font-weight="600" fill="#0A0F25">Digital Twin — How it works</text>
<text x="420" y="54" text-anchor="middle" font-size="13" fill="#6B8A96">twin.barbhs.com · RAG-powered conversational portfolio</text>

<!-- ═══ FLOW ROW ═══ -->
<rect x="28" y="76" width="170" height="108" rx="10" fill="#e3f2fd" stroke="#1976d2" stroke-width="1.5"/>
<text x="113" y="112" text-anchor="middle" font-size="26">💬</text>
<text x="113" y="138" text-anchor="middle" font-size="15" font-weight="600" fill="#0A0F25">Your question</text>
<text x="113" y="156" text-anchor="middle" font-size="11" fill="#1976d2">Gradio chatbot UI</text>
<text x="113" y="170" text-anchor="middle" font-size="11" fill="#1976d2">with prompt starters</text>

<line x1="198" y1="130" x2="230" y2="130" stroke="#0D32B2" stroke-width="2" marker-end="url(#ah)"/>

<rect x="234" y="76" width="170" height="108" rx="10" fill="#e8f5e8" stroke="#388e3c" stroke-width="1.5"/>
<text x="319" y="112" text-anchor="middle" font-size="26">🔍</text>
<text x="319" y="138" text-anchor="middle" font-size="15" font-weight="600" fill="#0A0F25">Retrieve context</text>
<text x="319" y="156" text-anchor="middle" font-size="11" fill="#388e3c">ChromaDB vector search</text>
<text x="319" y="170" text-anchor="middle" font-size="11" fill="#388e3c">350+ chunks ranked</text>

<line x1="404" y1="130" x2="436" y2="130" stroke="#0D32B2" stroke-width="2" marker-end="url(#ah)"/>

<rect x="440" y="76" width="170" height="108" rx="10" fill="#f3e5f5" stroke="#7b1fa2" stroke-width="1.5"/>
<text x="525" y="112" text-anchor="middle" font-size="26">🤖</text>
<text x="525" y="138" text-anchor="middle" font-size="15" font-weight="600" fill="#0A0F25">Generate answer</text>
<text x="525" y="156" text-anchor="middle" font-size="11" fill="#7b1fa2">Multi-provider LLM</text>
<text x="525" y="170" text-anchor="middle" font-size="11" fill="#7b1fa2">grounded in real data</text>

<line x1="610" y1="130" x2="642" y2="130" stroke="#0D32B2" stroke-width="2" marker-end="url(#ah)"/>

<rect x="646" y="76" width="166" height="108" rx="10" fill="#e3f2fd" stroke="#1976d2" stroke-width="1.5"/>
<text x="729" y="112" text-anchor="middle" font-size="26">✨</text>
<text x="729" y="138" text-anchor="middle" font-size="15" font-weight="600" fill="#0A0F25">Streamed reply</text>
<text x="729" y="156" text-anchor="middle" font-size="11" fill="#1976d2">Not hallucinated —</text>
<text x="729" y="170" text-anchor="middle" font-size="11" fill="#1976d2">backed by my KB</text>

<!-- ═══ FEATURE STRIP ═══ -->
<text x="420" y="214" text-anchor="middle" font-size="13" font-weight="600" fill="#0A0F25">Under the hood</text>

<rect x="28" y="228" width="192" height="82" rx="8" fill="#FFFFFF" stroke="#1976d2" stroke-width="1"/>
<text x="124" y="252" text-anchor="middle" font-size="13" font-weight="600" fill="#0A0F25">📚 Knowledge sources</text>
<text x="124" y="270" text-anchor="middle" font-size="11" fill="#1976d2">Biosketch · project briefs</text>
<text x="124" y="284" text-anchor="middle" font-size="11" fill="#1976d2">GitHub · MkDocs · resume</text>
<text x="124" y="300" text-anchor="middle" font-size="10" fill="#6B8A96">Section-aware chunking + metadata</text>

<rect x="232" y="228" width="192" height="82" rx="8" fill="#FFFFFF" stroke="#388e3c" stroke-width="1"/>
<text x="328" y="252" text-anchor="middle" font-size="13" font-weight="600" fill="#0A0F25">🧬 Embedding + search</text>
<text x="328" y="270" text-anchor="middle" font-size="11" fill="#388e3c">text-embedding-3-small</text>
<text x="328" y="284" text-anchor="middle" font-size="11" fill="#388e3c">1536 dims · cosine similarity</text>
<text x="328" y="300" text-anchor="middle" font-size="10" fill="#6B8A96">Top-K retrieval with ranked scores</text>

<rect x="436" y="228" width="192" height="82" rx="8" fill="#FFFFFF" stroke="#7b1fa2" stroke-width="1"/>
<text x="532" y="252" text-anchor="middle" font-size="13" font-weight="600" fill="#0A0F25">🌐 Multi-provider LLM</text>
<text x="532" y="270" text-anchor="middle" font-size="11" fill="#7b1fa2">GPT-4.1 · Claude · Gemini</text>
<text x="532" y="284" text-anchor="middle" font-size="11" fill="#7b1fa2">Ollama · via LiteLLM</text>
<text x="532" y="300" text-anchor="middle" font-size="10" fill="#6B8A96">Streaming + tool calling</text>

<rect x="640" y="228" width="172" height="82" rx="8" fill="#FFFFFF" stroke="#b28704" stroke-width="1"/>
<text x="726" y="252" text-anchor="middle" font-size="13" font-weight="600" fill="#0A0F25">🔧 Smart features</text>
<text x="726" y="270" text-anchor="middle" font-size="11" fill="#b28704">Pushover alerts for</text>
<text x="726" y="284" text-anchor="middle" font-size="11" fill="#b28704">unknowns + contacts</text>
<text x="726" y="300" text-anchor="middle" font-size="10" fill="#6B8A96">Dice roll, topic routing</text>

<!-- ═══ TECH PILLS ═══ -->
<rect x="136" y="336" width="68" height="22" rx="11" fill="#e3f2fd" stroke="#1976d2" stroke-width="0.75"/>
<text x="170" y="351" text-anchor="middle" font-size="10" font-weight="600" fill="#1976d2">Python</text>
<rect x="214" y="336" width="68" height="22" rx="11" fill="#e3f2fd" stroke="#1976d2" stroke-width="0.75"/>
<text x="248" y="351" text-anchor="middle" font-size="10" font-weight="600" fill="#1976d2">Gradio</text>
<rect x="292" y="336" width="82" height="22" rx="11" fill="#e8f5e8" stroke="#388e3c" stroke-width="0.75"/>
<text x="333" y="351" text-anchor="middle" font-size="10" font-weight="600" fill="#388e3c">ChromaDB</text>
<rect x="384" y="336" width="68" height="22" rx="11" fill="#f3e5f5" stroke="#7b1fa2" stroke-width="0.75"/>
<text x="418" y="351" text-anchor="middle" font-size="10" font-weight="600" fill="#7b1fa2">LiteLLM</text>
<rect x="462" y="336" width="68" height="22" rx="11" fill="#e3f2fd" stroke="#1976d2" stroke-width="0.75"/>
<text x="496" y="351" text-anchor="middle" font-size="10" font-weight="600" fill="#1976d2">OpenAI</text>
<rect x="540" y="336" width="100" height="22" rx="11" fill="#f0fff4" stroke="#2f855a" stroke-width="0.75"/>
<text x="590" y="351" text-anchor="middle" font-size="10" font-weight="600" fill="#2f855a">HuggingFace</text>

<!-- ═══ DEPLOYMENT NOTE ═══ -->
<rect x="220" y="378" width="400" height="36" rx="8" fill="#f0fff4" stroke="#2f855a" stroke-width="1"/>
<text x="420" y="400" text-anchor="middle" font-size="12" font-weight="600" fill="#2f855a">🚀 Deployed on HuggingFace Spaces · Custom domain: twin.barbhs.com</text>

<!-- Footer -->
<text x="420" y="452" text-anchor="middle" font-size="12" fill="#999">barbhs.com · Barbara Hidalgo-Sotelo</text>
<text x="420" y="470" text-anchor="middle" font-size="11" fill="#bbb">Making meaning from messy data</text>
</svg>
