<svg xmlns="http://www.w3.org/2000/svg" viewBox="0 0 840 480" width="840" height="480">
<style>
  @import url('https://fonts.googleapis.com/css2?family=Source+Sans+3:wght@400;600&amp;display=swap');
  text { font-family: 'Source Sans 3', 'Source Sans Pro', system-ui, sans-serif; }
</style>
<defs>
  <marker id="ah" viewBox="0 0 10 8" refX="9" refY="4" markerWidth="9" markerHeight="7" orient="auto">
    <path d="M0 0.5 L9 4 L0 7.5 Z" fill="#0D32B2"/>
  </marker>
</defs>

<rect width="840" height="480" fill="#FFFFFF" rx="12"/>

<!-- Title -->
<text x="420" y="34" text-anchor="middle" font-size="20" font-weight="600" fill="#0A0F25">Fitness Tracker — How it works</text>
<text x="420" y="54" text-anchor="middle" font-size="13" fill="#6B8A96">workouts.barbhs.com · 14+ years of self-tracked workout data</text>

<!-- ═══ FLOW ROW ═══ -->
<rect x="28" y="76" width="170" height="108" rx="10" fill="#fffde7" stroke="#b28704" stroke-width="1.5"/>
<text x="113" y="112" text-anchor="middle" font-size="26">🗄️</text>
<text x="113" y="138" text-anchor="middle" font-size="15" font-weight="600" fill="#0A0F25">Data ingestion</text>
<text x="113" y="156" text-anchor="middle" font-size="11" fill="#b28704">14+ years of workout</text>
<text x="113" y="170" text-anchor="middle" font-size="11" fill="#b28704">logs and metrics</text>

<line x1="198" y1="130" x2="230" y2="130" stroke="#0D32B2" stroke-width="2" marker-end="url(#ah)"/>

<rect x="234" y="76" width="170" height="108" rx="10" fill="#f3e5f5" stroke="#7b1fa2" stroke-width="1.5"/>
<text x="319" y="112" text-anchor="middle" font-size="26">🧠</text>
<text x="319" y="138" text-anchor="middle" font-size="15" font-weight="600" fill="#0A0F25">AI + analytics</text>
<text x="319" y="156" text-anchor="middle" font-size="11" fill="#7b1fa2">Pattern detection</text>
<text x="319" y="170" text-anchor="middle" font-size="11" fill="#7b1fa2">trend analysis</text>

<line x1="404" y1="130" x2="436" y2="130" stroke="#0D32B2" stroke-width="2" marker-end="url(#ah)"/>

<rect x="440" y="76" width="170" height="108" rx="10" fill="#e3f2fd" stroke="#1976d2" stroke-width="1.5"/>
<text x="525" y="112" text-anchor="middle" font-size="26">🎽</text>
<text x="525" y="138" text-anchor="middle" font-size="15" font-weight="600" fill="#0A0F25">Dashboard</text>
<text x="525" y="156" text-anchor="middle" font-size="11" fill="#1976d2">Interactive Streamlit</text>
<text x="525" y="170" text-anchor="middle" font-size="11" fill="#1976d2">charts and tables</text>

<line x1="610" y1="130" x2="642" y2="130" stroke="#0D32B2" stroke-width="2" marker-end="url(#ah)"/>

<rect x="646" y="76" width="166" height="108" rx="10" fill="#f0fff4" stroke="#2f855a" stroke-width="1.5"/>
<text x="729" y="112" text-anchor="middle" font-size="26">🚀</text>
<text x="729" y="138" text-anchor="middle" font-size="15" font-weight="600" fill="#0A0F25">Live deployment</text>
<text x="729" y="156" text-anchor="middle" font-size="11" fill="#2f855a">workouts.barbhs.com</text>
<text x="729" y="170" text-anchor="middle" font-size="11" fill="#2f855a">publicly accessible</text>

<!-- ═══ FEATURE STRIP ═══ -->
<text x="420" y="214" text-anchor="middle" font-size="13" font-weight="600" fill="#0A0F25">Under the hood</text>

<rect x="28" y="228" width="192" height="82" rx="8" fill="#FFFFFF" stroke="#b28704" stroke-width="1"/>
<text x="124" y="252" text-anchor="middle" font-size="13" font-weight="600" fill="#0A0F25">🗄️ Data pipeline</text>
<text x="124" y="270" text-anchor="middle" font-size="11" fill="#b28704">14+ years, 2,800+ sessions</text>
<text x="124" y="284" text-anchor="middle" font-size="11" fill="#b28704">Self-tracked gym data</text>
<text x="124" y="300" text-anchor="middle" font-size="10" fill="#6B8A96">Cleaned, normalized, enriched</text>

<rect x="232" y="228" width="192" height="82" rx="8" fill="#FFFFFF" stroke="#7b1fa2" stroke-width="1"/>
<text x="328" y="252" text-anchor="middle" font-size="13" font-weight="600" fill="#0A0F25">🧠 AI analysis</text>
<text x="328" y="270" text-anchor="middle" font-size="11" fill="#7b1fa2">Workout pattern detection</text>
<text x="328" y="284" text-anchor="middle" font-size="11" fill="#7b1fa2">Long-term trend analysis</text>
<text x="328" y="300" text-anchor="middle" font-size="10" fill="#6B8A96">Volume, frequency, progression</text>

<rect x="436" y="228" width="192" height="82" rx="8" fill="#FFFFFF" stroke="#1976d2" stroke-width="1"/>
<text x="532" y="252" text-anchor="middle" font-size="13" font-weight="600" fill="#0A0F25">📊 Interactive viz</text>
<text x="532" y="270" text-anchor="middle" font-size="11" fill="#1976d2">Plotly charts + tables</text>
<text x="532" y="284" text-anchor="middle" font-size="11" fill="#1976d2">Filter by date, muscle group</text>
<text x="532" y="300" text-anchor="middle" font-size="10" fill="#6B8A96">Time series, distributions, heatmaps</text>

<rect x="640" y="228" width="172" height="82" rx="8" fill="#FFFFFF" stroke="#2f855a" stroke-width="1"/>
<text x="726" y="252" text-anchor="middle" font-size="13" font-weight="600" fill="#0A0F25">🚀 Deployment</text>
<text x="726" y="270" text-anchor="middle" font-size="11" fill="#2f855a">Custom subdomain</text>
<text x="726" y="284" text-anchor="middle" font-size="11" fill="#2f855a">Always-on hosting</text>
<text x="726" y="300" text-anchor="middle" font-size="10" fill="#6B8A96">workouts.barbhs.com</text>

<!-- ═══ TECH PILLS ═══ -->
<rect x="198" y="336" width="80" height="22" rx="11" fill="#e3f2fd" stroke="#1976d2" stroke-width="0.75"/>
<text x="238" y="351" text-anchor="middle" font-size="10" font-weight="600" fill="#1976d2">Streamlit</text>
<rect x="288" y="336" width="68" height="22" rx="11" fill="#e8f5e8" stroke="#388e3c" stroke-width="0.75"/>
<text x="322" y="351" text-anchor="middle" font-size="10" font-weight="600" fill="#388e3c">Python</text>
<rect x="366" y="336" width="68" height="22" rx="11" fill="#f3e5f5" stroke="#7b1fa2" stroke-width="0.75"/>
<text x="400" y="351" text-anchor="middle" font-size="10" font-weight="600" fill="#7b1fa2">Pandas</text>
<rect x="444" y="336" width="68" height="22" rx="11" fill="#e3f2fd" stroke="#1976d2" stroke-width="0.75"/>
<text x="478" y="351" text-anchor="middle" font-size="10" font-weight="600" fill="#1976d2">Plotly</text>
<rect x="522" y="336" width="80" height="22" rx="11" fill="#fffde7" stroke="#b28704" stroke-width="0.75"/>
<text x="562" y="351" text-anchor="middle" font-size="10" font-weight="600" fill="#b28704">NumPy</text>

<!-- Footer -->
<text x="420" y="400" text-anchor="middle" font-size="12" fill="#999">barbhs.com · Barbara Hidalgo-Sotelo</text>
<text x="420" y="418" text-anchor="middle" font-size="11" fill="#bbb">Making meaning from messy data</text>
</svg>
