<svg xmlns="http://www.w3.org/2000/svg" viewBox="0 0 840 480" width="840" height="480">
<style>
  @import url('https://fonts.googleapis.com/css2?family=Source+Sans+3:wght@400;600&amp;display=swap');
  text { font-family: 'Source Sans 3', 'Source Sans Pro', system-ui, sans-serif; }
</style>
<defs>
  <marker id="ah" viewBox="0 0 10 8" refX="9" refY="4" markerWidth="9" markerHeight="7" orient="auto">
    <path d="M0 0.5 L9 4 L0 7.5 Z" fill="#0D32B2"/>
  </marker>
</defs>

<rect width="840" height="480" fill="#FFFFFF" rx="12"/>

<text x="420" y="34" text-anchor="middle" font-size="20" font-weight="600" fill="#0A0F25">Resume Graph Explorer — How it works</text>
<text x="420" y="54" text-anchor="middle" font-size="13" fill="#6B8A96">Transforms resumes into interactive SKOS-compliant knowledge graphs</text>

<!-- ═══ FLOW ROW ═══ -->
<rect x="28" y="76" width="170" height="108" rx="10" fill="#e3f2fd" stroke="#1976d2" stroke-width="1.5"/>
<text x="113" y="112" text-anchor="middle" font-size="26">📄</text>
<text x="113" y="138" text-anchor="middle" font-size="15" font-weight="600" fill="#0A0F25">Upload resume</text>
<text x="113" y="156" text-anchor="middle" font-size="11" fill="#1976d2">PDF, DOCX, TXT, MD</text>
<text x="113" y="170" text-anchor="middle" font-size="11" fill="#1976d2">multi-session support</text>

<line x1="198" y1="130" x2="230" y2="130" stroke="#0D32B2" stroke-width="2" marker-end="url(#ah)"/>

<rect x="234" y="76" width="170" height="108" rx="10" fill="#f3e5f5" stroke="#7b1fa2" stroke-width="1.5"/>
<text x="319" y="112" text-anchor="middle" font-size="26">🤖</text>
<text x="319" y="138" text-anchor="middle" font-size="15" font-weight="600" fill="#0A0F25">Extract + normalize</text>
<text x="319" y="156" text-anchor="middle" font-size="11" fill="#7b1fa2">LLM pulls entities, maps</text>
<text x="319" y="170" text-anchor="middle" font-size="11" fill="#7b1fa2">to ESCO taxonomy</text>

<line x1="404" y1="130" x2="436" y2="130" stroke="#0D32B2" stroke-width="2" marker-end="url(#ah)"/>

<rect x="440" y="76" width="170" height="108" rx="10" fill="#e8f5e8" stroke="#388e3c" stroke-width="1.5"/>
<text x="525" y="112" text-anchor="middle" font-size="26">🕸️</text>
<text x="525" y="138" text-anchor="middle" font-size="15" font-weight="600" fill="#0A0F25">Build graph</text>
<text x="525" y="156" text-anchor="middle" font-size="11" fill="#388e3c">SKOS-compliant RDF</text>
<text x="525" y="170" text-anchor="middle" font-size="11" fill="#388e3c">with relationships</text>

<line x1="610" y1="130" x2="642" y2="130" stroke="#0D32B2" stroke-width="2" marker-end="url(#ah)"/>

<rect x="646" y="76" width="166" height="108" rx="10" fill="#e3f2fd" stroke="#1976d2" stroke-width="1.5"/>
<text x="729" y="112" text-anchor="middle" font-size="26">🔍</text>
<text x="729" y="138" text-anchor="middle" font-size="15" font-weight="600" fill="#0A0F25">Explore + narrate</text>
<text x="729" y="156" text-anchor="middle" font-size="11" fill="#1976d2">Interactive Vis.js graph</text>
<text x="729" y="170" text-anchor="middle" font-size="11" fill="#1976d2">+ career narratives</text>

<!-- ═══ FEATURE STRIP ═══ -->
<text x="420" y="214" text-anchor="middle" font-size="13" font-weight="600" fill="#0A0F25">Under the hood</text>

<rect x="28" y="228" width="192" height="82" rx="8" fill="#FFFFFF" stroke="#7b1fa2" stroke-width="1"/>
<text x="124" y="252" text-anchor="middle" font-size="13" font-weight="600" fill="#0A0F25">🧬 3-phase normalization</text>
<text x="124" y="270" text-anchor="middle" font-size="11" fill="#7b1fa2">ESCO-anchored merging</text>
<text x="124" y="284" text-anchor="middle" font-size="11" fill="#7b1fa2">Batch LLM alias resolution</text>
<text x="124" y="300" text-anchor="middle" font-size="10" fill="#6B8A96">skos:altLabel tracking</text>

<rect x="232" y="228" width="192" height="82" rx="8" fill="#FFFFFF" stroke="#388e3c" stroke-width="1"/>
<text x="328" y="252" text-anchor="middle" font-size="13" font-weight="600" fill="#0A0F25">📊 Semantic web standards</text>
<text x="328" y="270" text-anchor="middle" font-size="11" fill="#388e3c">SKOS + ESCO + schema.org</text>
<text x="328" y="284" text-anchor="middle" font-size="11" fill="#388e3c">Export: Turtle, RDF/XML, JSON-LD</text>
<text x="328" y="300" text-anchor="middle" font-size="10" fill="#6B8A96">W3C-compliant vocabulary</text>

<rect x="436" y="228" width="192" height="82" rx="8" fill="#FFFFFF" stroke="#1976d2" stroke-width="1"/>
<text x="532" y="252" text-anchor="middle" font-size="13" font-weight="600" fill="#0A0F25">📈 Graph analysis pipeline</text>
<text x="532" y="270" text-anchor="middle" font-size="11" fill="#1976d2">6 structural analyses</text>
<text x="532" y="284" text-anchor="middle" font-size="11" fill="#1976d2">Conservative + exploratory</text>
<text x="532" y="300" text-anchor="middle" font-size="10" fill="#6B8A96">Career narrative synthesis</text>

<rect x="640" y="228" width="172" height="82" rx="8" fill="#FFFFFF" stroke="#b28704" stroke-width="1"/>
<text x="726" y="252" text-anchor="middle" font-size="13" font-weight="600" fill="#0A0F25">🌐 Multi-provider LLM</text>
<text x="726" y="270" text-anchor="middle" font-size="11" fill="#b28704">Claude · OpenAI · Ollama</text>
<text x="726" y="284" text-anchor="middle" font-size="11" fill="#b28704">WebSocket streaming</text>
<text x="726" y="300" text-anchor="middle" font-size="10" fill="#6B8A96">Real-time extraction progress</text>

<!-- ═══ TECH PILLS ═══ -->
<rect x="110" y="336" width="64" height="22" rx="11" fill="#e8f5e8" stroke="#388e3c" stroke-width="0.75"/>
<text x="142" y="351" text-anchor="middle" font-size="10" font-weight="600" fill="#388e3c">Flask</text>
<rect x="184" y="336" width="78" height="22" rx="11" fill="#e3f2fd" stroke="#1976d2" stroke-width="0.75"/>
<text x="223" y="351" text-anchor="middle" font-size="10" font-weight="600" fill="#1976d2">React 18</text>
<rect x="272" y="336" width="60" height="22" rx="11" fill="#e3f2fd" stroke="#1976d2" stroke-width="0.75"/>
<text x="302" y="351" text-anchor="middle" font-size="10" font-weight="600" fill="#1976d2">Vis.js</text>
<rect x="342" y="336" width="60" height="22" rx="11" fill="#f3e5f5" stroke="#7b1fa2" stroke-width="0.75"/>
<text x="372" y="351" text-anchor="middle" font-size="10" font-weight="600" fill="#7b1fa2">rdflib</text>
<rect x="412" y="336" width="82" height="22" rx="11" fill="#e8f5e8" stroke="#388e3c" stroke-width="0.75"/>
<text x="453" y="351" text-anchor="middle" font-size="10" font-weight="600" fill="#388e3c">NetworkX</text>
<rect x="504" y="336" width="60" height="22" rx="11" fill="#f3e5f5" stroke="#7b1fa2" stroke-width="0.75"/>
<text x="534" y="351" text-anchor="middle" font-size="10" font-weight="600" fill="#7b1fa2">ESCO</text>
<rect x="574" y="336" width="68" height="22" rx="11" fill="#fffde7" stroke="#b28704" stroke-width="0.75"/>
<text x="608" y="351" text-anchor="middle" font-size="10" font-weight="600" fill="#b28704">SKOS</text>

<text x="420" y="400" text-anchor="middle" font-size="12" fill="#999">barbhs.com · Barbara Hidalgo-Sotelo</text>
<text x="420" y="418" text-anchor="middle" font-size="11" fill="#bbb">Making meaning from messy data</text>
</svg>
