<svg xmlns="http://www.w3.org/2000/svg" viewBox="0 0 840 480" width="840" height="480">
<style>
  @import url('https://fonts.googleapis.com/css2?family=Source+Sans+3:wght@400;600&amp;display=swap');
  text { font-family: 'Source Sans 3', 'Source Sans Pro', system-ui, sans-serif; }
</style>
<defs>
  <marker id="ah" viewBox="0 0 10 8" refX="9" refY="4" markerWidth="9" markerHeight="7" orient="auto">
    <path d="M0 0.5 L9 4 L0 7.5 Z" fill="#0D32B2"/>
  </marker>
</defs>

<rect width="840" height="480" fill="#FFFFFF" rx="12"/>

<text x="420" y="34" text-anchor="middle" font-size="20" font-weight="600" fill="#0A0F25">Weaving Memories Into Graphs — How it works</text>
<text x="420" y="54" text-anchor="middle" font-size="13" fill="#6B8A96">A memorial knowledge graph preserving a family legacy</text>

<!-- ═══ FLOW ROW ═══ -->
<rect x="28" y="76" width="170" height="108" rx="10" fill="#fffde7" stroke="#b28704" stroke-width="1.5"/>
<text x="113" y="112" text-anchor="middle" font-size="26">📜</text>
<text x="113" y="138" text-anchor="middle" font-size="15" font-weight="600" fill="#0A0F25">Biographical text</text>
<text x="113" y="156" text-anchor="middle" font-size="11" fill="#b28704">Stories, documents,</text>
<text x="113" y="170" text-anchor="middle" font-size="11" fill="#b28704">photos, patents</text>

<line x1="198" y1="130" x2="230" y2="130" stroke="#0D32B2" stroke-width="2" marker-end="url(#ah)"/>

<rect x="234" y="76" width="170" height="108" rx="10" fill="#f3e5f5" stroke="#7b1fa2" stroke-width="1.5"/>
<text x="319" y="112" text-anchor="middle" font-size="26">🤖</text>
<text x="319" y="138" text-anchor="middle" font-size="15" font-weight="600" fill="#0A0F25">LLM extraction</text>
<text x="319" y="156" text-anchor="middle" font-size="11" fill="#7b1fa2">Claude extracts YAML</text>
<text x="319" y="170" text-anchor="middle" font-size="11" fill="#7b1fa2">validated by Pydantic</text>

<line x1="404" y1="130" x2="436" y2="130" stroke="#0D32B2" stroke-width="2" marker-end="url(#ah)"/>

<rect x="440" y="76" width="170" height="108" rx="10" fill="#e8f5e8" stroke="#388e3c" stroke-width="1.5"/>
<text x="525" y="112" text-anchor="middle" font-size="26">🕸️</text>
<text x="525" y="138" text-anchor="middle" font-size="15" font-weight="600" fill="#0A0F25">Neo4j graph</text>
<text x="525" y="156" text-anchor="middle" font-size="11" fill="#388e3c">14 entity types with</text>
<text x="525" y="170" text-anchor="middle" font-size="11" fill="#388e3c">temporal relationships</text>

<line x1="610" y1="130" x2="642" y2="130" stroke="#0D32B2" stroke-width="2" marker-end="url(#ah)"/>

<rect x="646" y="76" width="166" height="108" rx="10" fill="#e3f2fd" stroke="#1976d2" stroke-width="1.5"/>
<text x="729" y="112" text-anchor="middle" font-size="26">🌐</text>
<text x="729" y="138" text-anchor="middle" font-size="15" font-weight="600" fill="#0A0F25">Interactive views</text>
<text x="729" y="156" text-anchor="middle" font-size="11" fill="#1976d2">Timeline, legacy,</text>
<text x="729" y="170" text-anchor="middle" font-size="11" fill="#1976d2">and network views</text>

<!-- ═══ FEATURE STRIP ═══ -->
<text x="420" y="214" text-anchor="middle" font-size="13" font-weight="600" fill="#0A0F25">Under the hood</text>

<rect x="28" y="228" width="192" height="82" rx="8" fill="#FFFFFF" stroke="#b28704" stroke-width="1"/>
<text x="124" y="252" text-anchor="middle" font-size="13" font-weight="600" fill="#0A0F25">📋 14-entity schema</text>
<text x="124" y="270" text-anchor="middle" font-size="11" fill="#b28704">Person, Org, Position, Project</text>
<text x="124" y="284" text-anchor="middle" font-size="11" fill="#b28704">Patent, Technology, Artifact...</text>
<text x="124" y="300" text-anchor="middle" font-size="10" fill="#6B8A96">Temporal relationship patterns</text>

<rect x="232" y="228" width="192" height="82" rx="8" fill="#FFFFFF" stroke="#7b1fa2" stroke-width="1"/>
<text x="328" y="252" text-anchor="middle" font-size="13" font-weight="600" fill="#0A0F25">🔍 Wikidata enrichment</text>
<text x="328" y="270" text-anchor="middle" font-size="11" fill="#7b1fa2">Semi-automated queries</text>
<text x="328" y="284" text-anchor="middle" font-size="11" fill="#7b1fa2">for external context</text>
<text x="328" y="300" text-anchor="middle" font-size="10" fill="#6B8A96">Provenance tracking per fact</text>

<rect x="436" y="228" width="192" height="82" rx="8" fill="#FFFFFF" stroke="#388e3c" stroke-width="1"/>
<text x="532" y="252" text-anchor="middle" font-size="13" font-weight="600" fill="#0A0F25">🏗️ Schema-driven pipeline</text>
<text x="532" y="270" text-anchor="middle" font-size="11" fill="#388e3c">Pydantic dataclass validation</text>
<text x="532" y="284" text-anchor="middle" font-size="11" fill="#388e3c">graph_builder.py populates</text>
<text x="532" y="300" text-anchor="middle" font-size="10" fill="#6B8A96">YAML → Neo4j with constraints</text>

<rect x="640" y="228" width="172" height="82" rx="8" fill="#FFFFFF" stroke="#1976d2" stroke-width="1"/>
<text x="726" y="252" text-anchor="middle" font-size="13" font-weight="600" fill="#0A0F25">🖥️ React + Flask frontend</text>
<text x="726" y="270" text-anchor="middle" font-size="11" fill="#1976d2">Timeline view + filters</text>
<text x="726" y="284" text-anchor="middle" font-size="11" fill="#1976d2">Legacy + network modes</text>
<text x="726" y="300" text-anchor="middle" font-size="10" fill="#6B8A96">Cypher-powered interactivity</text>

<!-- ═══ TECH PILLS ═══ -->
<rect x="148" y="336" width="68" height="22" rx="11" fill="#e8f5e8" stroke="#388e3c" stroke-width="0.75"/>
<text x="182" y="351" text-anchor="middle" font-size="10" font-weight="600" fill="#388e3c">Python</text>
<rect x="226" y="336" width="80" height="22" rx="11" fill="#e8f5e8" stroke="#388e3c" stroke-width="0.75"/>
<text x="266" y="351" text-anchor="middle" font-size="10" font-weight="600" fill="#388e3c">Neo4j Aura</text>
<rect x="316" y="336" width="68" height="22" rx="11" fill="#f3e5f5" stroke="#7b1fa2" stroke-width="0.75"/>
<text x="350" y="351" text-anchor="middle" font-size="10" font-weight="600" fill="#7b1fa2">Claude</text>
<rect x="394" y="336" width="60" height="22" rx="11" fill="#e3f2fd" stroke="#1976d2" stroke-width="0.75"/>
<text x="424" y="351" text-anchor="middle" font-size="10" font-weight="600" fill="#1976d2">Flask</text>
<rect x="464" y="336" width="90" height="22" rx="11" fill="#e3f2fd" stroke="#1976d2" stroke-width="0.75"/>
<text x="509" y="351" text-anchor="middle" font-size="10" font-weight="600" fill="#1976d2">React + Vite</text>
<rect x="564" y="336" width="82" height="22" rx="11" fill="#fffde7" stroke="#b28704" stroke-width="0.75"/>
<text x="605" y="351" text-anchor="middle" font-size="10" font-weight="600" fill="#b28704">Wikidata</text>

<!-- ═══ PERSONAL NOTE ═══ -->
<rect x="220" y="378" width="400" height="36" rx="8" fill="#fffde7" stroke="#b28704" stroke-width="1"/>
<text x="420" y="400" text-anchor="middle" font-size="12" font-weight="600" fill="#b28704">🕊️ In memory of Domingo Hidalgo Lopez (1956–2018)</text>

<text x="420" y="452" text-anchor="middle" font-size="12" fill="#999">barbhs.com · Barbara Hidalgo-Sotelo</text>
<text x="420" y="470" text-anchor="middle" font-size="11" fill="#bbb">Making meaning from messy data</text>
</svg>
