<svg width="1200" height="760" viewBox="0 0 1200 760" xmlns="http://www.w3.org/2000/svg"
     font-family="'Segoe UI', system-ui, -apple-system, Arial, sans-serif">

  <defs>
    <filter id="sh" x="-10%" y="-10%" width="120%" height="130%">
      <feDropShadow dx="0" dy="2" stdDeviation="4" flood-color="#00000018"/>
    </filter>
    <filter id="sh2" x="-5%" y="-5%" width="115%" height="120%">
      <feDropShadow dx="0" dy="1" stdDeviation="2" flood-color="#00000012"/>
    </filter>
    <marker id="a-purple" markerWidth="8" markerHeight="6" refX="7" refY="3" orient="auto">
      <polygon points="0 0, 8 3, 0 6" fill="#6d28d9"/>
    </marker>
    <marker id="a-orange" markerWidth="8" markerHeight="6" refX="7" refY="3" orient="auto">
      <polygon points="0 0, 8 3, 0 6" fill="#ea580c"/>
    </marker>
    <marker id="a-green" markerWidth="8" markerHeight="6" refX="7" refY="3" orient="auto">
      <polygon points="0 0, 8 3, 0 6" fill="#059669"/>
    </marker>
    <marker id="a-slate" markerWidth="8" markerHeight="6" refX="7" refY="3" orient="auto">
      <polygon points="0 0, 8 3, 0 6" fill="#475569"/>
    </marker>
    <marker id="a-cyan" markerWidth="8" markerHeight="6" refX="7" refY="3" orient="auto">
      <polygon points="0 0, 8 3, 0 6" fill="#0891b2"/>
    </marker>
  </defs>

  <!-- Background -->
  <rect width="1200" height="760" fill="#f8f9fc"/>

  <!-- Title bar -->
  <rect width="1200" height="64" fill="#0f172a"/>
  <text x="600" y="26" text-anchor="middle" fill="white" font-size="19" font-weight="700" letter-spacing="0.3">GraphRAG Pipeline — Barbara's Digital Twin</text>
  <text x="600" y="48" text-anchor="middle" fill="#94a3b8" font-size="11.5">Hybrid vector + graph retrieval · Neo4j Knowledge Graph · Multi-provider LLM generation via LiteLLM</text>

  <!-- Footer -->
  <text x="600" y="752" text-anchor="middle" fill="#cbd5e1" font-size="9.5">Barbara Hidalgo-Sotelo · twin.barbhs.com · 2026</text>


  <!-- ═══════════════════════════════════════════
       ZONE 1: KNOWLEDGE BASE INGESTION  x=12 w=362
  ═══════════════════════════════════════════ -->
  <rect x="12" y="72" width="362" height="666" fill="#eef2ff" rx="10" stroke="#c7d2fe" stroke-width="1.5"/>
  <text x="193" y="94" text-anchor="middle" fill="#4338ca" font-size="11.5" font-weight="700" letter-spacing="0.8">KNOWLEDGE BASE INGESTION</text>

  <!-- KB Documents card -->
  <rect x="26" y="104" width="334" height="114" fill="white" rx="8" filter="url(#sh2)"/>
  <rect x="26" y="104" width="334" height="24" fill="#4f46e5" rx="8"/>
  <rect x="26" y="120" width="334" height="8" fill="#4f46e5"/>
  <text x="193" y="121" text-anchor="middle" fill="white" font-size="11" font-weight="700">KB DOCUMENTS</text>
  <text x="38" y="142" fill="#1e293b" font-size="10.5">● Biosketch ⭐  (authoritative source of truth)</text>
  <text x="38" y="157" fill="#475569" font-size="10">● Philosophy &amp; Approach  ·  Professional Positioning</text>
  <text x="38" y="171" fill="#475569" font-size="10">● Career Narrative  ·  Projects  ·  Publications</text>
  <text x="38" y="186" fill="#475569" font-size="10">● Answer Bank  ·  Origins  ·  Easter Eggs</text>
  <text x="38" y="201" fill="#64748b" font-size="9.5" font-style="italic">Markdown ## headers → named Section nodes</text>

  <!-- PDFs + Jekyll side by side -->
  <rect x="26" y="226" width="160" height="62" fill="white" rx="8" filter="url(#sh2)"/>
  <rect x="26" y="226" width="160" height="22" fill="#6366f1" rx="8"/>
  <rect x="26" y="240" width="160" height="8" fill="#6366f1"/>
  <text x="106" y="242" text-anchor="middle" fill="white" font-size="10.5" font-weight="700">PROJECT PDFs</text>
  <text x="38" y="261" fill="#1e293b" font-size="10">20 one-page summaries</text>
  <text x="38" y="275" fill="#64748b" font-size="9.5" font-style="italic">+ synthetic overview chunk</text>

  <rect x="200" y="226" width="160" height="62" fill="white" rx="8" filter="url(#sh2)"/>
  <rect x="200" y="226" width="160" height="22" fill="#6366f1" rx="8"/>
  <rect x="200" y="240" width="160" height="8" fill="#6366f1"/>
  <text x="280" y="242" text-anchor="middle" fill="white" font-size="10.5" font-weight="700">JEKYLL WEBSITE</text>
  <text x="212" y="261" fill="#1e293b" font-size="10">barbhs.com (GitHub src)</text>
  <text x="212" y="275" fill="#64748b" font-size="9.5" font-style="italic">idempotent ingestion</text>

  <!-- Project walkthroughs -->
  <rect x="26" y="296" width="334" height="42" fill="white" rx="8" filter="url(#sh2)"/>
  <text x="193" y="315" text-anchor="middle" fill="#4338ca" font-size="11" font-weight="700">PROJECT WALKTHROUGHS</text>
  <text x="193" y="330" text-anchor="middle" fill="#475569" font-size="9.5">featured_projects.py · Project -[:DESCRIBED_IN]→ Section</text>

  <!-- Arrow -->
  <line x1="193" y1="344" x2="193" y2="362" stroke="#475569" stroke-width="2" marker-end="url(#a-slate)"/>

  <!-- Processing box -->
  <rect x="26" y="364" width="334" height="100" fill="#1e3a5f" rx="8" filter="url(#sh)"/>
  <text x="193" y="385" text-anchor="middle" fill="#e2e8f0" font-size="11.5" font-weight="700">SECTION-AWARE PROCESSING</text>
  <text x="40" y="405" fill="#93c5fd" font-size="10.5">1. Parse   →  ## headers → named Sections</text>
  <text x="40" y="420" fill="#93c5fd" font-size="10.5">2. Chunk  →  ≈500 chars, paragraph-aware, 50 overlap</text>
  <text x="40" y="435" fill="#93c5fd" font-size="10.5">3. Embed  →  OpenAI text-embedding-3-small (1536-dim)</text>
  <text x="40" y="450" fill="#93c5fd" font-size="10.5">4. Load   →  Section nodes + vector index into Neo4j</text>

  <!-- Arrow -->
  <line x1="193" y1="470" x2="193" y2="488" stroke="#475569" stroke-width="2" marker-end="url(#a-slate)"/>

  <!-- Entity extraction box -->
  <rect x="26" y="490" width="334" height="88" fill="#3b0764" rx="8" filter="url(#sh)"/>
  <text x="193" y="510" text-anchor="middle" fill="#ede9fe" font-size="11.5" font-weight="700">LLM ENTITY EXTRACTION</text>
  <text x="193" y="528" text-anchor="middle" fill="#c4b5fd" font-size="10">Skills (57)  ·  Methods (42)  ·  Technologies (46)</text>
  <text x="193" y="544" text-anchor="middle" fill="#c4b5fd" font-size="10">Concepts (22, manually curated)  →  MENTIONS edges</text>
  <text x="193" y="560" text-anchor="middle" fill="#a78bfa" font-size="9.5">3-phase canonicalization · alt_labels stored on nodes</text>

  <!-- Arrow -->
  <line x1="193" y1="584" x2="193" y2="602" stroke="#475569" stroke-width="2" marker-end="url(#a-slate)"/>

  <!-- ChromaDB fallback -->
  <rect x="26" y="604" width="334" height="66" fill="white" rx="8" stroke="#94a3b8" stroke-width="1.5" stroke-dasharray="6,3"/>
  <text x="193" y="626" text-anchor="middle" fill="#64748b" font-size="11" font-weight="600">ChromaDB  ·  Fallback &amp; A/B Baseline</text>
  <text x="193" y="643" text-anchor="middle" fill="#94a3b8" font-size="10">Same chunks · pure vector similarity only</text>
  <text x="193" y="659" text-anchor="middle" fill="#94a3b8" font-size="9" font-style="italic">replay_retrieval.py --compare for side-by-side eval</text>


  <!-- ═══════════════════════════════════════════
       ZONE 2: NEO4J KNOWLEDGE GRAPH  x=388 w=420
  ═══════════════════════════════════════════ -->
  <rect x="388" y="72" width="420" height="666" fill="#f5f3ff" rx="10" stroke="#ddd6fe" stroke-width="1.5"/>
  <text x="598" y="94" text-anchor="middle" fill="#6d28d9" font-size="11.5" font-weight="700" letter-spacing="0.8">NEO4J KNOWLEDGE GRAPH</text>

  <!-- Document node -->
  <circle cx="598" cy="182" r="42" fill="#4f46e5" filter="url(#sh)"/>
  <text x="598" y="178" text-anchor="middle" fill="white" font-size="12" font-weight="700">Document</text>
  <text x="598" y="194" text-anchor="middle" fill="#c7d2fe" font-size="9.5">KB · PDFs · site pages</text>

  <!-- HAS_SECTION edges -->
  <line x1="571" y1="207" x2="487" y2="278" stroke="#6d28d9" stroke-width="1.8" marker-end="url(#a-purple)"/>
  <line x1="598" y1="224" x2="598" y2="310" stroke="#6d28d9" stroke-width="1.8" marker-end="url(#a-purple)"/>
  <line x1="625" y1="207" x2="709" y2="278" stroke="#6d28d9" stroke-width="1.8" marker-end="url(#a-purple)"/>
  <text x="556" y="252" fill="#6d28d9" font-size="8.5" transform="rotate(-40,556,252)">HAS_SECTION</text>
  <text x="608" y="268" fill="#6d28d9" font-size="8.5">HAS_SECTION</text>
  <text x="643" y="248" fill="#6d28d9" font-size="8.5" transform="rotate(40,643,248)">HAS_SECTION</text>

  <!-- Section nodes -->
  <circle cx="465" cy="304" r="32" fill="#0891b2" filter="url(#sh)"/>
  <text x="465" y="300" text-anchor="middle" fill="white" font-size="11" font-weight="700">Section</text>
  <text x="465" y="314" text-anchor="middle" fill="#cffafe" font-size="9">text + embedding</text>

  <circle cx="598" cy="346" r="34" fill="#0891b2" filter="url(#sh)"/>
  <text x="598" y="342" text-anchor="middle" fill="white" font-size="11" font-weight="700">Section</text>
  <text x="598" y="356" text-anchor="middle" fill="#cffafe" font-size="9">sensitivity · char_count</text>

  <circle cx="731" cy="304" r="32" fill="#0891b2" filter="url(#sh)"/>
  <text x="731" y="300" text-anchor="middle" fill="white" font-size="11" font-weight="700">Section</text>
  <text x="731" y="314" text-anchor="middle" fill="#cffafe" font-size="9">name · full_text</text>

  <!-- Project node -->
  <circle cx="452" cy="450" r="33" fill="#ea580c" filter="url(#sh)"/>
  <text x="452" y="446" text-anchor="middle" fill="white" font-size="11" font-weight="700">Project</text>
  <text x="452" y="460" text-anchor="middle" fill="#fed7aa" font-size="9">title · tags · links</text>

  <!-- DESCRIBED_IN: Project → Section-center -->
  <path d="M 476,422 Q 530,384 564,360" stroke="#ea580c" stroke-width="2" fill="none" marker-end="url(#a-orange)"/>
  <text x="506" y="400" fill="#ea580c" font-size="8.5" transform="rotate(-30,506,400)">DESCRIBED_IN</text>

  <!-- Entity nodes -->
  <circle cx="695" cy="458" r="28" fill="#7c3aed" filter="url(#sh)"/>
  <text x="695" y="454" text-anchor="middle" fill="white" font-size="10.5" font-weight="600">Skill</text>
  <text x="695" y="467" text-anchor="middle" fill="#ede9fe" font-size="9">57 nodes</text>

  <circle cx="764" cy="384" r="26" fill="#7c3aed" filter="url(#sh)"/>
  <text x="764" y="380" text-anchor="middle" fill="white" font-size="10" font-weight="600">Tech</text>
  <text x="764" y="393" text-anchor="middle" fill="#ede9fe" font-size="9">46 nodes</text>

  <circle cx="616" cy="496" r="26" fill="#7c3aed" filter="url(#sh)"/>
  <text x="616" y="492" text-anchor="middle" fill="white" font-size="10" font-weight="600">Concept</text>
  <text x="616" y="505" text-anchor="middle" fill="#ede9fe" font-size="9">22 curated</text>

  <!-- MENTIONS edges -->
  <line x1="749" y1="296" x2="757" y2="358" stroke="#7c3aed" stroke-width="1.5" marker-end="url(#a-purple)"/>
  <line x1="626" y1="354" x2="670" y2="434" stroke="#7c3aed" stroke-width="1.5" marker-end="url(#a-purple)"/>
  <line x1="604" y1="380" x2="612" y2="470" stroke="#7c3aed" stroke-width="1.5" marker-end="url(#a-purple)"/>
  <text x="742" y="330" fill="#7c3aed" font-size="8.5">MENTIONS</text>
  <text x="638" y="400" fill="#7c3aed" font-size="8.5" transform="rotate(45,638,400)">MENTIONS</text>

  <!-- Vector index badge -->
  <rect x="402" y="530" width="392" height="48" fill="#1e293b" rx="8"/>
  <text x="598" y="550" text-anchor="middle" fill="#94a3b8" font-size="10" font-weight="600" letter-spacing="0.5">VECTOR INDEX</text>
  <text x="598" y="568" text-anchor="middle" fill="white" font-size="11">section_embeddings  ·  1536-dim cosine  ·  all Section nodes</text>

  <!-- Eval metrics -->
  <rect x="402" y="588" width="392" height="64" fill="white" rx="8" stroke="#ddd6fe" stroke-width="1"/>
  <text x="598" y="607" text-anchor="middle" fill="#6d28d9" font-size="10.5" font-weight="700">EVAL vs. ChromaDB BASELINE</text>
  <text x="440" y="632" text-anchor="middle" fill="#059669" font-size="15" font-weight="800">+9.5%</text>
  <text x="440" y="645" text-anchor="middle" fill="#64748b" font-size="9">keyword coverage</text>
  <text x="598" y="632" text-anchor="middle" fill="#059669" font-size="15" font-weight="800">+34.3%</text>
  <text x="598" y="645" text-anchor="middle" fill="#64748b" font-size="9">relationship coverage</text>
  <text x="762" y="632" text-anchor="middle" fill="#f59e0b" font-size="15" font-weight="800">382ms</text>
  <text x="762" y="645" text-anchor="middle" fill="#64748b" font-size="9">median latency (&lt;500ms ✓)</text>

  <!-- Node legend -->
  <rect x="402" y="662" width="392" height="64" fill="white" rx="8" stroke="#ddd6fe" stroke-width="1"/>
  <text x="598" y="680" text-anchor="middle" fill="#6d28d9" font-size="10" font-weight="700">NODE TYPES  ·  Relationships: HAS_SECTION · DESCRIBED_IN · MENTIONS</text>
  <circle cx="420" cy="695" r="7" fill="#4f46e5"/>
  <text x="432" y="699" fill="#374151" font-size="9.5">Document</text>
  <circle cx="494" cy="695" r="7" fill="#0891b2"/>
  <text x="506" y="699" fill="#374151" font-size="9.5">Section</text>
  <circle cx="560" cy="695" r="7" fill="#ea580c"/>
  <text x="572" y="699" fill="#374151" font-size="9.5">Project</text>
  <circle cx="622" cy="695" r="7" fill="#7c3aed"/>
  <text x="634" y="699" fill="#374151" font-size="9.5">Entity (Skill · Tech · Method · Concept)</text>
  <text x="420" y="718" fill="#64748b" font-size="9">Sensitivity tiers: public → personal → inner_circle  ·  4 uniqueness constraints</text>


  <!-- ═══════════════════════════════════════════
       ZONE 3: QUERY & RESPONSE  x=822 w=366
  ═══════════════════════════════════════════ -->
  <rect x="822" y="72" width="366" height="666" fill="#f0fdf4" rx="10" stroke="#bbf7d0" stroke-width="1.5"/>
  <text x="1005" y="94" text-anchor="middle" fill="#15803d" font-size="11.5" font-weight="700" letter-spacing="0.8">QUERY &amp; RESPONSE</text>

  <!-- User question -->
  <rect x="836" y="104" width="338" height="52" fill="white" rx="8" filter="url(#sh2)"/>
  <text x="1005" y="124" text-anchor="middle" fill="#0f172a" font-size="12" font-weight="700">User Question</text>
  <text x="1005" y="143" text-anchor="middle" fill="#64748b" font-size="10" font-style="italic">"How did you get into beekeeping?"</text>

  <line x1="1005" y1="156" x2="1005" y2="173" stroke="#15803d" stroke-width="2" marker-end="url(#a-green)"/>

  <!-- Embed -->
  <rect x="836" y="175" width="338" height="38" fill="#dcfce7" rx="8"/>
  <text x="1005" y="192" text-anchor="middle" fill="#15803d" font-size="11" font-weight="600">Embed query</text>
  <text x="1005" y="206" text-anchor="middle" fill="#166534" font-size="10">OpenAI text-embedding-3-small</text>

  <line x1="1005" y1="213" x2="1005" y2="230" stroke="#15803d" stroke-width="2" marker-end="url(#a-green)"/>

  <!-- Vector search -->
  <rect x="836" y="232" width="338" height="38" fill="#dcfce7" rx="8"/>
  <text x="1005" y="249" text-anchor="middle" fill="#15803d" font-size="11" font-weight="600">Vector search on section_embeddings</text>
  <text x="1005" y="263" text-anchor="middle" fill="#166534" font-size="10">fetch_k = k × 4 candidate pool before reranking</text>

  <line x1="1005" y1="270" x2="1005" y2="287" stroke="#15803d" stroke-width="2" marker-end="url(#a-green)"/>

  <!-- COMPOSITE SCORING — dark, prominent -->
  <rect x="836" y="289" width="338" height="160" fill="#0f172a" rx="8" filter="url(#sh)"/>
  <text x="1005" y="311" text-anchor="middle" fill="#f8fafc" font-size="12" font-weight="700">COMPOSITE SCORING</text>
  <text x="1005" y="327" text-anchor="middle" fill="#475569" font-size="9.5" font-style="italic">the graph differentiator</text>

  <!-- Weight bars -->
  <text x="848" y="347" fill="#94a3b8" font-size="9.5">vector similarity</text>
  <text x="1163" y="347" text-anchor="end" fill="#60a5fa" font-size="9.5" font-weight="700">× 0.85</text>
  <rect x="848" y="350" width="306" height="11" fill="#1e293b" rx="3"/>
  <rect x="848" y="350" width="260" height="11" fill="#3b82f6" rx="3"/>

  <text x="848" y="376" fill="#94a3b8" font-size="9.5">project link bonus</text>
  <text x="1163" y="376" text-anchor="end" fill="#fb923c" font-size="9.5" font-weight="700">× 0.08</text>
  <rect x="848" y="379" width="306" height="11" fill="#1e293b" rx="3"/>
  <rect x="848" y="379" width="24" height="11" fill="#f97316" rx="3"/>

  <text x="848" y="405" fill="#94a3b8" font-size="9.5">entity mention bonus (cap 5)</text>
  <text x="1163" y="405" text-anchor="end" fill="#c084fc" font-size="9.5" font-weight="700">× 0.05</text>
  <rect x="848" y="408" width="306" height="11" fill="#1e293b" rx="3"/>
  <rect x="848" y="408" width="15" height="11" fill="#a855f7" rx="3"/>

  <text x="848" y="434" fill="#94a3b8" font-size="9.5">length bonus (&gt;2000 chars)</text>
  <text x="1163" y="434" text-anchor="end" fill="#67e8f9" font-size="9.5" font-weight="700">× 0.02</text>
  <rect x="848" y="437" width="306" height="11" fill="#1e293b" rx="3"/>
  <rect x="848" y="437" width="6" height="11" fill="#06b6d4" rx="3"/>

  <text x="1005" y="458" text-anchor="middle" fill="#475569" font-size="8.5" font-style="italic">rebalanced 2026-05-17 after hallucination · see LESSONS_LEARNED.md #001</text>

  <line x1="1005" y1="449" x2="1005" y2="464" stroke="#15803d" stroke-width="2" marker-end="url(#a-green)"/>

  <!-- Tier gating -->
  <rect x="836" y="466" width="338" height="36" fill="#dcfce7" rx="8"/>
  <text x="1005" y="483" text-anchor="middle" fill="#15803d" font-size="11" font-weight="600">Sensitivity tier gate</text>
  <text x="1005" y="496" text-anchor="middle" fill="#166534" font-size="10">public · personal · inner_circle → filters allowed sections</text>

  <line x1="1005" y1="502" x2="1005" y2="519" stroke="#15803d" stroke-width="2" marker-end="url(#a-green)"/>

  <!-- Context injection -->
  <rect x="836" y="521" width="338" height="36" fill="#dcfce7" rx="8"/>
  <text x="1005" y="538" text-anchor="middle" fill="#15803d" font-size="11" font-weight="600">Top-K sections → context block</text>
  <text x="1005" y="551" text-anchor="middle" fill="#166534" font-size="10">injected into SYSTEM_PROMPT.md template</text>

  <line x1="1005" y1="557" x2="1005" y2="574" stroke="#15803d" stroke-width="2" marker-end="url(#a-green)"/>

  <!-- LLM -->
  <rect x="836" y="576" width="338" height="54" fill="#15803d" rx="8" filter="url(#sh)"/>
  <text x="1005" y="598" text-anchor="middle" fill="white" font-size="12" font-weight="700">LLM Generation</text>
  <text x="1005" y="614" text-anchor="middle" fill="#bbf7d0" font-size="10">Multi-provider via LiteLLM · temp 0.6</text>
  <text x="1005" y="628" text-anchor="middle" fill="#86efac" font-size="9.5">OpenAI · Anthropic · Google · Ollama</text>

  <line x1="1005" y1="630" x2="1005" y2="648" stroke="#15803d" stroke-width="2" marker-end="url(#a-green)"/>

  <!-- Response -->
  <rect x="836" y="650" width="338" height="72" fill="white" rx="8" filter="url(#sh2)" stroke="#bbf7d0" stroke-width="1.5"/>
  <text x="1005" y="672" text-anchor="middle" fill="#0f172a" font-size="12" font-weight="700">Barbara's Response</text>
  <text x="1005" y="691" text-anchor="middle" fill="#64748b" font-size="10" font-style="italic">"The bees actually moved into a bat box</text>
  <text x="1005" y="706" text-anchor="middle" fill="#64748b" font-size="10" font-style="italic">in my backyard — totally unexpected..."</text>


  <!-- ═══════════════════════════════════════════
       CROSS-ZONE ARROWS
  ═══════════════════════════════════════════ -->

  <!-- Zone 1 → Zone 2 (loads) -->
  <line x1="374" y1="540" x2="402" y2="540" stroke="#6d28d9" stroke-width="2.5" marker-end="url(#a-purple)"/>
  <text x="388" y="534" text-anchor="middle" fill="#6d28d9" font-size="9" font-style="italic">loads</text>

  <!-- Zone 2 → Zone 3 (queries / returns) — two arrows -->
  <!-- Query goes left (Zone3 → Zone2) -->
  <line x1="820" y1="252" x2="808" y2="252" stroke="#0891b2" stroke-width="2" marker-end="url(#a-cyan)"/>
  <text x="815" y="246" text-anchor="middle" fill="#0891b2" font-size="8.5" font-style="italic">queries</text>
  <!-- Results go right (Zone2 → Zone3) -->
  <line x1="808" y1="380" x2="822" y2="380" stroke="#059669" stroke-width="2" marker-end="url(#a-green)"/>
  <text x="815" y="374" text-anchor="middle" fill="#059669" font-size="8.5" font-style="italic">sections</text>

</svg>
